<?xml version="1.0" encoding="utf-8"?>
<!-- Generator: Adobe Illustrator 22.1.0, SVG Export Plug-In . SVG Version: 6.00 Build 0)  -->
<svg version="1.1" id="_x32_" xmlns="http://www.w3.org/2000/svg" xmlns:xlink="http://www.w3.org/1999/xlink" x="0px" y="0px"
	 width="800px" height="800px" viewBox="0 0 800 800" style="enable-background:new 0 0 800 800;" xml:space="preserve">
<style type="text/css">
	.st0{fill:#3A9F00;}
</style>
<g>
	<path class="st0" d="M338.1,383.3c-3.4,6.9-8.8,12.8-15.5,16.9c-10.6,6.5-23.5,7.9-35.3,3.8l-8.6-3c2.9,3.1,5.6,6.3,8.1,9.7
		c14.7,19.6,23.6,43.3,25.3,68c1.1,16.5-1,33.4-6.7,50c-8.7,25-24.1,45.4-43.8,60.1c-19.6,14.7-43.3,23.6-68,25.3
		c-1.8,0.1-3.7,0.2-5.5,0.2c4.6,12.2,5.2,26,0.6,39.2c-2.4,7-6.1,13.2-10.6,18.5c18.7,0.7,37.1-1.4,54.7-6.1
		c34.4-9.2,65.7-28.2,89.9-55c16.1-17.8,29-39.2,37.3-63.3c12.5-36.1,13.2-73.7,3.9-108.1C358.4,419.5,349.7,400.5,338.1,383.3z"/>
	<path class="st0" d="M108.6,385.6c19.6-14.7,43.3-23.7,68-25.3c16.5-1.1,33.4,1,50,6.7l65.6,22.7c7.5,2.6,15.7,1.7,22.4-2.4
		c6.7-4.1,11.3-11,12.4-18.9l10-54.3c1.8-12.5-5.6-24.5-17.5-28.7l-57.7-20l-57.8-20c-11.9-4.1-25.1,0.8-31.5,11.7l-25.7,48.9
		l-0.1,0.2c-3.1,0.7-6.2,1.4-9.3,2.2c-34.4,9.2-65.8,28.2-89.9,55c-16.1,17.9-29,39.2-37.3,63.3c-12.5,36.1-13.1,73.7-3.9,108.1
		c9.2,34.4,28.2,65.8,55,89.9c9.8,8.8,20.6,16.6,32.3,23.2c4,12.2,13.4,22.5,26.5,27c22.2,7.7,46.5-4.1,54.1-26.3
		c7.7-22.2-4.1-46.5-26.3-54.2c-10.2-3.5-20.7-2.9-29.9,0.9c-13.6-8.4-25.3-19.2-34.6-31.7c-14.7-19.6-23.6-43.3-25.3-68
		c-1.1-16.5,1-33.4,6.7-50C73.5,420.7,89,400.3,108.6,385.6z M227.1,316.3c2.5-7.3,9.1-11.9,16.3-12.3l6.4-18.5l12.9,4.5l-6.4,18.5
		c5.4,4.7,7.7,12.5,5.3,19.7c-3.3,9.5-13.7,14.6-23.2,11.3C228.8,336.2,223.8,325.8,227.1,316.3z M116.8,628.8
		c3.3-9.5,13.7-14.6,23.2-11.3c9.5,3.3,14.6,13.7,11.3,23.2s-13.7,14.6-23.2,11.3C118.5,648.7,113.5,638.3,116.8,628.8z"/>
	<path class="st0" d="M573.9,673.6c-23.4-8-44-22.7-59.1-42c-15.1-19.3-24.8-43-26.7-69.4c-1.2-17.6,1.1-34.5,6.5-50.1
		c8-23.4,22.7-44,42-59.1c3.3-2.6,6.7-5,10.3-7.2l-9.1,0.6c-12.5,0.9-24.5-3.8-33.1-12.9c-5.4-5.7-9.1-12.8-10.6-20.3
		c-15.7,13.6-29,29.7-39.4,47.7c-17.8,30.8-26.9,67.3-24.2,105.4c1.8,25.4,8.7,49.4,19.6,70.8c16.4,32.2,41.7,58.6,72.6,76.4
		c15.8,9.1,33,15.9,51.2,20.1c-3-6.3-4.9-13.2-5.4-20.6c-1-14,3.1-27.1,10.8-37.7C577.4,674.8,575.7,674.2,573.9,673.6z"/>
	<path class="st0" d="M799.5,540.1c-1.8-25.4-8.7-49.4-19.6-70.8c-16.4-32.2-41.7-58.6-72.6-76.4c-2.8-1.6-5.6-3.1-8.4-4.5l0-0.2
		l-12.2-53.9c-3.3-12.2-14.8-20.3-27.4-19.4l-60.9,4.3l-60.9,4.3c-12.6,0.9-22.8,10.6-24.4,23.1l-4.4,55c-1,7.9,1.6,15.7,7.1,21.4
		c5.4,5.7,13.1,8.7,21,8.2l69.2-4.9c17.6-1.2,34.5,1.1,50.1,6.4c23.4,8,44,22.8,59.1,42c15.1,19.3,24.8,43,26.7,69.4
		c1.2,17.6-1.1,34.5-6.5,50.1c-8,23.4-22.7,44-42,59.1c-12.3,9.6-26.3,17-41.7,21.6c-7.9-6.1-18-9.3-28.7-8.6
		c-23.5,1.7-41.1,22-39.5,45.5c1.7,23.5,22,41.1,45.5,39.5c13.8-1,25.5-8.4,32.6-19.2c13-3.4,25.5-8.1,37.2-14.1
		c32.2-16.4,58.6-41.7,76.4-72.6C793.1,614.7,802.3,578.2,799.5,540.1z M601.8,396.7c-10.1,0.7-18.8-6.8-19.5-16.9
		c-0.5-7.6,3.7-14.5,10.2-17.7l-1.4-19.5l13.6-1l1.4,19.5c6.9,2.2,12,8.4,12.6,16.1C619.4,387.2,611.8,396,601.8,396.7z
		 M627.4,727.1c-10.1,0.7-18.8-6.8-19.5-16.9c-0.7-10,6.9-18.8,16.9-19.5c10.1-0.7,18.8,6.9,19.5,16.9
		C645,717.7,637.4,726.4,627.4,727.1z"/>
	<path class="st0" d="M440.6,111c3.3-5.2,5.4-11.2,6.2-17.4l22,5.1c-1.3,4-2,8.3-2,12.5c0,8.3,2.6,16.8,7.9,24l19,25.7
		c3.9,5.4,9,9.5,14.6,12.3s11.8,4.2,18,4.2c4.1,0,8.2-0.6,12.2-1.9l9.2,15.1c-3.3,2.5-6.3,5.3-8.7,8.6c-5.4,7.3-8.6,16.2-8.6,25.6
		c0,3.7,0.5,7.5,1.5,11.3l9.1,33c2.6,9.4,8.2,17.3,15.5,22.7c7.3,5.4,16.2,8.6,25.5,8.6c3.7,0,7.5-0.5,11.3-1.5l0,0
		c9.4-2.6,17.3-8.2,22.7-15.4c5.4-7.3,8.5-16.2,8.5-25.5c0-3.8-0.5-7.5-1.5-11.3l-9.1-33c-2.6-9.4-8.2-17.3-15.4-22.7
		c-7.3-5.5-16.2-8.5-25.6-8.5c-0.6,0-1.2,0-1.8,0l-12.7-20.9c1.6-2.1,3.1-4.3,4.2-6.6c2.8-5.6,4.2-11.8,4.2-18
		c0-8.3-2.6-16.8-7.9-24l-19-25.7c-4-5.4-9-9.5-14.6-12.3c-5.6-2.8-11.8-4.2-18-4.2c-7.7,0-15.6,2.2-22.4,6.8l-44.2-10.3
		c-3.2-5-7.3-9.1-12.1-12.1c-6.5-4.2-14.1-6.4-21.9-6.4c-5.4,0-11,1.1-16.2,3.4L361,64.7v0c-7.6,3.3-13.7,8.7-17.9,15.2
		c-4.2,6.5-6.4,14.1-6.4,21.9c0,3.8,0.6,7.6,1.7,11.4l-21.1,20.1c-4.3-1.4-8.8-2.1-13.2-2.1c-8.2,0-16.1,2.4-22.9,6.7
		s-12.5,10.7-16,18.6l-13.9,31.3c-2.5,5.6-3.7,11.5-3.7,17.2c0,8.2,2.4,16.1,6.7,22.9c4.3,6.8,10.7,12.5,18.6,16
		c5.6,2.5,11.5,3.7,17.3,3.7c8.2,0,16.1-2.3,22.9-6.7c6.8-4.3,12.5-10.7,16-18.6l13.9-31.3c2.5-5.6,3.7-11.5,3.7-17.3
		c0-8.2-2.3-16.1-6.7-22.9c-0.7-1.1-1.5-2.2-2.3-3.2l14.6-13.9c1,0.8,2.1,1.6,3.1,2.2c6.5,4.2,14.1,6.4,21.9,6.4
		c5.4,0,10.9-1.1,16.2-3.4l29.3-12.8C430.3,122.9,436.4,117.5,440.6,111z M558.4,213.9c2.3-3.1,5.6-5.5,9.7-6.6
		c1.6-0.5,3.3-0.7,4.8-0.7c4,0,7.8,1.3,10.9,3.7c3.1,2.4,5.5,5.6,6.6,9.7l9.1,33c0.4,1.7,0.6,3.2,0.6,4.9c0,4-1.3,7.8-3.7,10.9
		c-2.3,3.1-5.6,5.5-9.7,6.6c-1.6,0.4-3.2,0.7-4.8,0.7c-4,0-7.8-1.3-10.9-3.7c-3.2-2.4-5.5-5.6-6.6-9.7l-9.1-33l-11.7,3.2l11.7-3.2
		c-0.4-1.6-0.7-3.2-0.7-4.8C554.7,220.8,556,217,558.4,213.9z M494.2,120.7c-2.1-2.9-3.1-6.2-3.1-9.6c0-2.5,0.6-5,1.7-7.2
		c0.3-0.6,0.7-1.2,1.1-1.8c2.4-1,4.5-2.9,5.8-5.2c2.4-1.3,5-1.9,7.6-1.9c2.5,0,5,0.6,7.2,1.7c2.2,1.1,4.2,2.7,5.8,4.9l19,25.8
		c2.2,2.9,3.2,6.2,3.2,9.6c0,2.5-0.6,5-1.7,7.2c-1.1,2.2-2.7,4.2-4.9,5.9c-2.9,2.1-6.2,3.1-9.6,3.2c-2.5,0-5-0.6-7.2-1.7
		c-2.2-1.1-4.2-2.7-5.8-4.9L494.2,120.7l-9.8,7.2L494.2,120.7z M320.6,181.1l-13.9,31.3c-1.5,3.4-3.9,6.1-6.8,7.9
		c-2.9,1.9-6.3,2.9-9.8,2.9c-2.5,0-5-0.5-7.4-1.6c-3.4-1.5-6.1-3.9-8-6.8c-1.9-2.9-2.9-6.3-2.9-9.8c0-2.4,0.5-4.9,1.6-7.3l13.9-31.3
		c1.5-3.4,3.9-6.1,6.8-8c2.9-1.9,6.3-2.9,9.8-2.9c2.5,0,4.9,0.5,7.4,1.6c3.4,1.5,6.1,3.9,8,6.8c1.8,2.9,2.9,6.3,2.9,9.8
		C322.2,176.2,321.7,178.7,320.6,181.1z M420.1,97.8c-1.7,2.6-4.1,4.7-7.1,6.1l-29.3,12.8c-2.1,0.9-4.3,1.3-6.5,1.3
		c-3.1,0-6.2-0.9-8.8-2.6c-2.6-1.7-4.7-4.1-6.1-7.1c-1-2.1-1.4-4.3-1.4-6.5c0-3.1,0.9-6.2,2.6-8.8c1.7-2.6,4.1-4.7,7.1-6.1h0
		L400,74.2c2.1-0.9,4.3-1.4,6.5-1.4c3.1,0,6.2,0.9,8.8,2.6c2.6,1.7,4.7,4.1,6.1,7.2c1,2.1,1.4,4.3,1.4,6.4
		C422.7,92.1,421.8,95.2,420.1,97.8z"/>
</g>
</svg>
