<?xml version="1.0" encoding="utf-8"?>
<!-- Generator: Adobe Illustrator 22.1.0, SVG Export Plug-In . SVG Version: 6.00 Build 0)  -->
<svg version="1.1" id="Capa_1" xmlns="http://www.w3.org/2000/svg" xmlns:xlink="http://www.w3.org/1999/xlink" x="0px" y="0px"
	 width="800px" height="800px" viewBox="0 0 800 800" style="enable-background:new 0 0 800 800;" xml:space="preserve">
<style type="text/css">
	.st0{fill:#1F52FF;}
</style>
<g>
	<g>
		<polygon class="st0" points="292.2,593.4 278.8,800 509,800 495.6,593.4 		"/>
		<polygon class="st0" points="314.4,249.1 305.5,386.8 482.3,386.8 473.4,249.1 		"/>
		<polygon class="st0" points="302.9,428.2 294.9,552.1 493,552.1 485,428.2 		"/>
		<polygon class="st0" points="517.1,414.4 517.1,400.6 497,400.6 489.6,400.6 483.2,400.6 304.6,400.6 298.2,400.6 290.8,400.6 
			269.2,400.6 269.2,414.4 290,414.4 297.3,414.4 303.8,414.4 484.1,414.4 490.5,414.4 497.9,414.4 		"/>
		<polygon class="st0" points="517.1,194 483.6,194 304.2,194 282.9,194 282.9,235.4 301.5,235.4 308.9,235.4 315.3,235.4 
			472.5,235.4 479,235.4 486.3,235.4 517.1,235.4 		"/>
		<polygon class="st0" points="500.3,565.9 493.9,565.9 294,565.9 287.5,565.9 280.2,565.9 255.4,565.9 255.4,579.7 279.3,579.7 
			286.6,579.7 293.1,579.7 494.8,579.7 501.2,579.7 508.6,579.7 530.8,579.7 530.8,565.9 507.7,565.9 		"/>
		<path class="st0" d="M390.2,0c-31.7,0-57.5,28.8-58.9,56.3h117.8C447.7,28.8,421.9,0,390.2,0z"/>
		<path class="st0" d="M310.7,180.3h166.5L457.6,70.1H330.3L310.7,180.3z M395.1,92.2c16.9,0,30.6,13.7,30.6,30.6
			s-13.7,30.6-30.6,30.6c-16.9,0-30.6-13.7-30.6-30.6S378.2,92.2,395.1,92.2z"/>
		<polygon class="st0" points="296.7,95.8 145.2,56.7 145.2,184 296.7,144.8 		"/>
		<polygon class="st0" points="503.3,144.8 654.8,184 654.8,56.7 503.3,95.8 		"/>
	</g>
</g>
</svg>
