<?xml version="1.0" encoding="utf-8"?>
<!-- Generator: Adobe Illustrator 22.1.0, SVG Export Plug-In . SVG Version: 6.00 Build 0)  -->
<svg version="1.1" id="Layer_1" xmlns="http://www.w3.org/2000/svg" xmlns:xlink="http://www.w3.org/1999/xlink" x="0px" y="0px"
	 width="800px" height="800px" viewBox="0 0 800 800" style="enable-background:new 0 0 800 800;" xml:space="preserve">
<style type="text/css">
	.st0{fill:#FF000E;}
	.st1{fill:#292D32;}
</style>
<path class="st0" d="M733.3,260.3v156.3h-136c-4-0.3-12.7-5.3-14.7-9L548,342c-13.7-26-37.3-40.7-62.7-39.3c-25.3,1.3-47,18.3-58,46
	l-46,115.3l-6.7-17.3c-16.3-42.3-63-74.3-109-74.3l-199,1v-113C66.7,139,139,66.7,260.3,66.7h279.3C661,66.7,733.3,139,733.3,260.3z
	"/>
<path class="st0" d="M733.3,539.6v-73h-136c-22.3,0-48.7-16-59-35.7l-34.7-65.7c-9.3-17.7-22.7-16.7-30,1.7L397,560.6
	c-8.3,21.7-22.3,21.7-31,0l-38-96c-9-23.3-37-42.3-62-42.3l-199.3,1v116.3c0,119.3,70,191.3,187.7,193.3c3.7,0.3,7.7,0.3,11.3,0.3
	h266.7c5,0,10,0,14.7-0.3C664,730.3,733.3,658.6,733.3,539.6z"/>
<path class="st1" d="M66.7,423.3v110.3c-0.7-10.7-1-22-1-33.7v-76.7H66.7z"/>
</svg>
