<?xml version="1.0" encoding="utf-8"?>
<!-- Generator: Adobe Illustrator 22.1.0, SVG Export Plug-In . SVG Version: 6.00 Build 0)  -->
<svg version="1.1" id="passport" xmlns="http://www.w3.org/2000/svg" xmlns:xlink="http://www.w3.org/1999/xlink" x="0px" y="0px"
	 width="800px" height="800px" viewBox="0 0 800 800" style="enable-background:new 0 0 800 800;" xml:space="preserve">
<style type="text/css">
	.st0{fill:#AA0077;}
</style>
<path class="st0" d="M438.2,175.4v49.1c10.5-0.8,21.6-2.5,33.3-5.4C460.7,200.3,447.9,185.4,438.2,175.4z"/>
<path class="st0" d="M504.3,347.8c10.5,3.9,21.4,8.7,32.5,14.4c10.9-17.2,17.9-37.1,19.7-58.5h-42.6
	C512.9,318.6,509.7,333.3,504.3,347.8z"/>
<path class="st0" d="M417.2,407.8v-53.9c-13.2,0.4-25.3,2.1-36,4.6C389.8,375.2,401.9,391.6,417.2,407.8z"/>
<path class="st0" d="M330.9,378.5c17.6,19.9,41.2,34.4,68,40.5c-16.3-17.8-29.1-36-38.2-54.6C347,369.3,336.9,374.8,330.9,378.5z"/>
<path class="st0" d="M501.6,232.2c6.2,15.3,10.8,32.2,12.1,50.5h42.8c-1.9-23.7-10.3-45.6-23.3-64
	C522.3,224,511.8,228.5,501.6,232.2z"/>
<rect x="158.4" y="67.2" class="st0" width="53.3" height="665.6"/>
<path class="st0" d="M519.1,202c-15.9-16-36-27.8-58.5-33.7c10.2,11.3,22,26.4,31.9,44.7C501.1,210,510,206.3,519.1,202z"/>
<path class="st0" d="M344,303.7h-45c1.7,21.1,8.6,40.8,19.2,57.9c6.7-4.2,18.4-10.8,34.3-16.6C347.7,331.4,344.9,317.6,344,303.7z"
	/>
<path class="st0" d="M397.8,167.5c-24.2,5.7-45.7,18.3-62.5,35.5c6.7,3.8,16.4,8.5,28.6,12.6C374.3,195.7,387,179.4,397.8,167.5z"/>
<path class="st0" d="M355.1,234.9c-14.7-5.1-26-11-33.5-15.4c-12.7,18.2-20.8,39.8-22.7,63.1h45.1
	C345.3,265.4,349.4,249.4,355.1,234.9z"/>
<path class="st0" d="M372.7,338.9c13.1-3.3,28-5.6,44.5-6.1v-29.1h-52C366,315.5,368.6,327.2,372.7,338.9z"/>
<path class="st0" d="M365.2,282.6h52v-36.5c-15.3-0.4-29.2-2.5-41.6-5.4C370.4,253.6,366.5,267.7,365.2,282.6z"/>
<path class="st0" d="M417.2,225v-47.2c-9.7,10.3-22,25.1-32.2,43.4C394.7,223.3,405.5,224.7,417.2,225z"/>
<path class="st0" d="M459.6,418.3c25.2-6.4,47.4-20.3,64.3-39c-9.6-4.8-19-8.8-28-12.1C487,384.6,474.8,401.6,459.6,418.3z"/>
<path class="st0" d="M492.7,303.7h-54.4v29.5c14.4,1,29.7,3.5,46,8C488.9,328.9,491.7,316.3,492.7,303.7z"/>
<path class="st0" d="M641.6,668.7V131.3c0-35.4-28.7-64.1-64.1-64.1H229.7v665.6h347.8C612.9,732.8,641.6,704.1,641.6,668.7z
	 M466.8,656.2H300.3V635h166.5L466.8,656.2L466.8,656.2z M555.1,656.2h-51.5V635h51.5V656.2z M555.1,596.2H300.3V575h254.9V596.2
	L555.1,596.2z M338,536.1v-21.2h179.5v21.2H338z M427.7,443.5c-82.9,0-150.3-67.4-150.3-150.3c0-82.9,67.4-150.3,150.3-150.3
	c82.9,0,150.3,67.4,150.3,150.3C578,376,510.6,443.5,427.7,443.5z"/>
<path class="st0" d="M481.2,238.5c-15.1,4-29.5,6.3-43,7.2v36.9h54.3C491.2,266.7,487,251.9,481.2,238.5z"/>
<path class="st0" d="M438.2,354.5v55.8c15.7-16.2,28.1-32.8,37.1-49.5C462.3,357.3,449.9,355.4,438.2,354.5z"/>
</svg>
